<?xml version="1.0" encoding="UTF-8" standalone="no"?>
<svg
   width="60mm"
   height="60mm"
   viewBox="0 0 60 60"
   version="1.1"
   id="svg1"
   xmlns="http://www.w3.org/2000/svg"
   xmlns:svg="http://www.w3.org/2000/svg">
  <defs
     id="defs1" />
  <path
     style="baseline-shift:baseline;display:inline;overflow:visible;vector-effect:none;stroke-width:0.897195;stroke-linecap:round;stroke-linejoin:round;paint-order:markers stroke fill;enable-background:accumulate;stop-color:#000;fill:#bcbcbc;fill-opacity:1"
     d="M71.947 76.563c-.69.009-1.39.12-2.082.345a6.988 6.988 0 0 0-4.502 8.82l9.429 29.096c.037-.139.078-.277.123-.415l7.243-22.285-3.472-10.713a6.988 6.988 0 0 0-6.739-4.848zm21.85.01a6.987 6.987 0 0 0-6.742 4.841l-10.86 33.41a6.987 6.987 0 0 0 4.494 8.824 6.987 6.987 0 0 0 8.825-4.494l10.86-33.41a6.988 6.988 0 0 0-4.494-8.825 7.042 7.042 0 0 0-2.082-.346zm-21.814 3.465a3.533 3.533 0 0 1 1.13 6.89 3.531 3.531 0 1 1-1.13-6.89zm21.776.01a3.531 3.531 0 1 1-.088 7.063 3.531 3.531 0 0 1 .088-7.064zM54.632 89.38a6.984 6.984 0 0 0-5.903 2.899 6.988 6.988 0 0 0 1.564 9.779l24.773 17.937a8.484 8.484 0 0 1-.153-.433L67.727 97.39l-9.22-6.676a6.984 6.984 0 0 0-3.875-1.333zm-.114 3.476a3.53 3.53 0 1 1-.236 7.059 3.53 3.53 0 0 1 .236-7.06zm-6.793 17.13a6.988 6.988 0 0 0-7.003 7.002 6.988 6.988 0 0 0 7.003 7.003h30.583a8.42 8.42 0 0 1-.35-.24l-19.01-13.765zm35.173 3.47a3.53 3.53 0 1 1-.087 7.063 3.53 3.53 0 0 1 .087-7.063zm-35.173.001a3.531 3.531 0 1 1 0 7.062 3.531 3.531 0 0 1 0-7.062z"
     transform="translate(-40.722 -70.279)"
     id="path1" />
</svg>
