<?xml version="1.0" encoding="UTF-8" standalone="no"?>
<!-- Created with Inkscape (http://www.inkscape.org/) -->

<svg
   width="40.421799mm"
   height="46.263332mm"
   viewBox="0 0 40.421799 46.263332"
   version="1.1"
   id="svg1"
   xmlns="http://www.w3.org/2000/svg"
   xmlns:svg="http://www.w3.org/2000/svg">
  <defs
     id="defs1" />
  <g
     id="layer1"
     transform="translate(-196.58542,-111.125)"
     style="fill:#bcbcbc;fill-opacity:1">
    <path
       id="path26-2"
       style="fill:#bcbcbc;fill-opacity:1"
       d="m 197.62772,111.125 -0.3168,0.18604 c -0.4633,0.27217 -0.7255,0.70943 -0.7255,1.20974 0,0.23126 2.9049,38.49362 3.129,39.04981 0.075,0.18637 0.2732,0.43175 0.4403,0.54571 0.3865,0.26374 16.0767,5.26503 16.6139,5.27203 0.4899,0.005 16.232,-4.97327 16.6698,-5.27203 0.1671,-0.11395 0.3648,-0.35934 0.4398,-0.54571 0.2233,-0.55659 3.129,-38.8115 3.129,-39.04981 -1e-4,-0.50031 -0.2622,-0.93757 -0.7255,-1.20974 l -0.3168,-0.18604 z m 6.1955,8.35039 25.9214,0.13798 -2.296,25.97516 -10.5999,3.13314 -10.6737,-2.91817 -0.7152,-8.07806 5.0767,-0.16019 0.4227,4.28811 5.8322,1.59266 5.8425,-1.58233 0.7767,-7.19129 -18.233,-0.0382 -0.4754,-4.83433 19.1394,-0.2589 0.3932,-5.29063 h -20.0804 z" />
  </g>
</svg>
