<?xml version="1.0" encoding="UTF-8" standalone="no"?>
<!-- Created with Inkscape (http://www.inkscape.org/) -->

<svg
   width="40.421799mm"
   height="46.263363mm"
   viewBox="0 0 40.421799 46.263363"
   version="1.1"
   id="svg1"
   xmlns="http://www.w3.org/2000/svg"
   xmlns:svg="http://www.w3.org/2000/svg">
  <defs
     id="defs1" />
  <g
     id="layer1"
     transform="translate(-207.69792,-115.62292)">
    <path
       style="fill:#ffffff;fill-opacity:1"
       d="m 211.26692,156.61441 c -0.1671,-0.11396 -0.365,-0.35968 -0.4398,-0.54605 -0.2241,-0.55619 -3.1292,-38.81864 -3.1292,-39.0499 0,-0.50031 0.2621,-0.93721 0.7254,-1.20938 l 0.3169,-0.18616 h 38.3372 l 0.3169,0.18616 c 0.4633,0.27217 0.7253,0.70907 0.7254,1.20938 0,0.23831 -2.9059,38.49331 -3.1292,39.0499 -0.075,0.18637 -0.2727,0.43208 -0.4398,0.54603 -0.4378,0.29876 -16.1795,5.27724 -16.6694,5.27189 -0.5372,-0.007 -16.2279,-5.00813 -16.6144,-5.27187 z m 27.5355,-6.49231 1.251,-15.60246 -18.5795,-0.0381 -0.5437,-5.39978 19.5768,-0.0227 0.3621,-5.05272 h -25.9206 l 1.2297,15.59864 9.1486,0.0806 h 9.0989 l -0.4448,6.06837 -6.3314,1.64776 -5.5413,-1.48851 v -3.96182 h -5.8135 l 0.7034,8.15515 10.8472,3.43601 z"
       id="path26" />
  </g>
</svg>
