<?xml version="1.0" encoding="UTF-8" standalone="no"?>
<!-- Created with Inkscape (http://www.inkscape.org/) -->

<svg
   width="40.961201mm"
   height="40.961239mm"
   viewBox="0 0 40.961201 40.961239"
   version="1.1"
   id="svg1"
   xmlns="http://www.w3.org/2000/svg"
   xmlns:svg="http://www.w3.org/2000/svg">
  <defs
     id="defs1" />
  <g
     id="layer1"
     transform="translate(-184.15,-114.56457)"
     style="fill:#bcbcbc;fill-opacity:1">
    <path
       style="fill:#bcbcbc;stroke-width:0.659305;fill-opacity:1"
       d="m 184.15,135.04519 v -20.48062 h 20.4807 20.4805 v 20.48062 20.48062 H 204.6307 184.15 Z m 18.5046,17.04753 c 1.4435,-0.37598 2.5772,-1.27152 3.1612,-2.49731 0.6441,-1.35194 0.6068,-0.82498 0.6351,-8.97148 l 0.025,-7.26166 -3.8858,0.0428 -0.041,7.08021 -0.041,7.08022 -0.1898,0.38528 c -0.2305,0.46812 -0.6178,0.74183 -1.2123,0.85664 -1.1916,0.23015 -2.0468,-0.24162 -2.8187,-1.55505 l -0.2206,-0.37529 -0.3043,0.18421 -2.8143,1.78425 c -0.037,0.0235 0.1749,0.3534 0.389,0.68754 0.9299,1.4513 2.2619,2.34369 3.987,2.6711 0.8531,0.1619 2.4886,0.10706 3.3279,-0.11148 z m 14.4164,0.11542 c 2.4697,-0.40111 4.2443,-1.87738 4.727,-3.93249 0.1985,-0.8448 0.1218,-2.51392 -0.1525,-3.30053 -0.6061,-1.74133 -2.021,-2.89438 -5.2145,-4.24968 -1.1933,-0.50641 -1.9963,-0.92652 -2.3286,-1.21824 -0.9734,-0.85479 -0.6932,-2.47194 0.4965,-2.86459 0.4369,-0.14416 1.5176,-0.0639 1.9121,0.14205 0.3428,0.1789 0.779,0.60675 1.0816,1.06062 0.1022,0.15401 0.1941,0.29081 0.2032,0.304 0.022,0.0313 2.7613,-1.72664 2.9041,-1.86316 0.2415,-0.23121 -1.0493,-1.75018 -1.9548,-2.3003 -1.2154,-0.73831 -2.9967,-1.02397 -4.6201,-0.74089 -2.1017,0.36651 -3.5462,1.52715 -4.1858,3.36336 -0.1988,0.57049 -0.2218,0.74554 -0.221,1.677 0,1.73475 0.3908,2.72431 1.5115,3.84012 0.8152,0.81155 1.4882,1.21046 3.7053,2.19652 1.8297,0.81379 2.3067,1.08683 2.7193,1.55671 0.6029,0.68665 0.545,1.63181 -0.1407,2.29701 -0.5322,0.51628 -1.0127,0.67046 -2.0826,0.66817 -1.1329,-0.002 -1.7432,-0.20832 -2.5909,-0.87411 -0.2883,-0.22635 -1.0409,-1.13913 -1.1098,-1.34594 -0.023,-0.0693 -2.3246,1.19076 -3.0867,1.68994 -0.087,0.0572 -0.078,0.12848 0.053,0.38352 0.2899,0.56816 1.065,1.47478 1.6758,1.96024 1.1179,0.8883 2.2781,1.35498 4.0188,1.61643 0.5121,0.0769 2.0311,0.0396 2.6802,-0.0657 z"
       id="path5" />
  </g>
</svg>
