<?xml version="1.0" encoding="UTF-8" standalone="no"?>
<!-- Created with Inkscape (http://www.inkscape.org/) -->

<svg
   width="12.63512mm"
   height="12.634147mm"
   viewBox="0 0 12.63512 12.634147"
   version="1.1"
   id="svg1"
   xmlns="http://www.w3.org/2000/svg"
   xmlns:svg="http://www.w3.org/2000/svg">
  <defs
     id="defs1" />
  <g
     id="layer1"
     transform="translate(-212.72498,-115.62292)">
    <g
       id="g26"
       transform="translate(-744.38933,14.023657)">
      <path
         style="fill:#0788ff;fill-opacity:1;stroke-width:0.526463"
         d="m 958.69354,107.91671 c -0.87227,0 -1.57923,0.70748 -1.57923,1.57975 v 3.15846 c 10e-4,2.10455 3.16028,2.10455 3.15898,0 v -3.15846 c 0,-0.87227 -0.70748,-1.57975 -1.57975,-1.57975 z"
         id="path3" />
      <path
         id="path2"
         style="fill:#ffffff;fill-opacity:1;stroke-width:0.526463"
         d="M 968.16997 101.59926 A 1.5793903 1.5793903 0 0 0 966.59073 103.17849 L 966.59073 112.65492 A 1.5793903 1.5793903 0 0 0 969.7492 112.65492 L 969.7492 103.17849 A 1.5793903 1.5793903 0 0 0 968.16997 101.59926 z M 963.43175 104.75824 C 962.55948 104.75824 961.85252 105.46521 961.85252 106.33748 L 961.85252 112.65492 C 961.85352 114.75947 965.0128 114.75947 965.0115 112.65492 L 965.0115 106.33748 C 965.0115 105.46521 964.30402 104.75824 963.43175 104.75824 z " />
    </g>
  </g>
</svg>
