<?xml version="1.0" encoding="UTF-8" standalone="no"?>
<!-- Created with Inkscape (http://www.inkscape.org/) -->

<svg
   width="50.005001mm"
   height="50.005001mm"
   viewBox="0 0 50.005001 50.005001"
   version="1.1"
   id="svg1"
   xmlns="http://www.w3.org/2000/svg"
   xmlns:svg="http://www.w3.org/2000/svg">
  <defs
     id="defs1" />
  <g
     id="layer1"
     transform="translate(-61.170376,-112.06197)"
     style="fill:#bcbcbc;fill-opacity:1">
    <path
       style="fill:#bcbcbc;stroke-width:0.893243;fill-opacity:1"
       d="m 61.225283,155.24346 -0.055,-36.34812 27.3305,-4.52887 0.067,4.87652 21.284207,0.0903 c 0.7561,0.004 1.1763,0.77729 1.2796,1.49119 0.057,0.39885 0.06,31.044 0,31.4425 -0.1119,0.77454 -0.7204,1.55225 -1.5482,1.55404 l -21.018107,0.0453 v 5.89616 c -0.2448,-0.0107 -27.3091,-4.51742 -27.3396,-4.51902 z m 48.355107,-3.01749 V 120.83891 H 88.567083 v 7.00449 l 0.4322,-0.43692 c 0.4904,-0.4957 0.9183,-0.82615 1.4957,-1.1552 0.8841,-0.5038 2.0964,-0.84618 2.9962,-0.84618 h 0.2627 v 6.69414 h 6.705607 l -0.031,0.41007 c -0.3013,3.92074 -3.791607,6.74174 -7.635407,6.171 -1.4583,-0.21654 -2.721,-0.86036 -3.7933,-1.93422 l -0.4322,-0.43284 v 5.2287 h 15.072807 v 2.03928 H 88.567583 v 2.83724 h 15.072807 v 2.03927 H 88.567583 v 3.82715 z m -14.851207,-27.67657 0.4363,0.0266 c 3.2806,0.19987 6.010907,2.9129 6.199207,6.16005 l 0.028,0.47657 h -6.663107 z m -21.634,17.70187 v -2.70426 h 1.221 c 1.3376,0 1.6319,-0.035 2.2252,-0.26477 0.9942,-0.38504 1.9254,-1.31659 2.4436,-2.44454 0.3983,-0.86697 0.5751,-1.6395 0.6124,-2.67702 0.055,-1.54293 -0.2938,-2.69687 -1.1238,-3.71139 -0.6204,-0.75841 -1.3517,-1.13167 -2.3721,-1.2108 -0.3187,-0.0247 -4.7164,0.18749 -5.6108,0.27076 l -0.2771,0.0258 v 7.62158 c 0,4.19186 0.01,7.62398 0.011,7.62691 0.026,0.0122 2.3391,0.16017 2.5935,0.16583 l 0.2771,0.006 z m 0,-7.82443 v -2.28958 l 0.9432,0.0142 0.9433,0.0142 0.2957,0.14571 c 0.6681,0.32917 1.0513,1.09118 1.0532,2.09483 0,0.93307 -0.4707,1.78308 -1.1879,2.13646 l -0.294,0.14487 -0.8768,0.0144 -0.8767,0.0144 z"
       id="path4" />
  </g>
</svg>
